Coordinates
version=1
nRows=7
nColumns=40
inDegrees=yes

Units are S.I. units (second, meters, Newtons, ...)
Angles are in degrees.

endheader
time	pelvis_tilt	pelvis_list	pelvis_rotation	pelvis_tx	pelvis_ty	pelvis_tz	hip_flexion_r	hip_adduction_r	hip_rotation_r	knee_angle_r	knee_angle_r_beta	ankle_angle_r	subtalar_angle_r	mtp_angle_r	hip_flexion_l	hip_adduction_l	hip_rotation_l	knee_angle_l	knee_angle_l_beta	ankle_angle_l	subtalar_angle_l	mtp_angle_l	lumbar_extension	lumbar_bending	lumbar_rotation	arm_flex_r	arm_add_r	arm_rot_r	elbow_flex_r	pro_sup_r	wrist_flex_r	wrist_dev_r	arm_flex_l	arm_add_l	arm_rot_l	elbow_flex_l	pro_sup_l	wrist_flex_l	wrist_dev_l
     16.27000000	     -5.04138682	     -3.72225841	     -0.82980846	      0.99091011	      0.93176390	      0.42819084	     30.85527217	     -7.92683304	     -7.60677957	     70.37801941	     70.37801941	      6.16624688	    -17.56298539	      4.32266707	     19.00392646	     -4.81935970	     -8.02538555	     21.13682301	     21.13682301	      9.92592313	     -7.47382372	     -2.14285862	    -10.28459132	      3.15096597	      2.53854293	     12.40135252	    -15.48605479	      0.63470620	     91.52087595	     44.78003438	      0.00000000	      0.00000000	      8.73010508	    -13.84008314	      6.79424820	     36.87878962	     45.15157063	      0.00000000	      0.00000000
     16.28192857	     -4.90102460	     -3.72174919	     -1.11449334	      0.99017105	      0.93243921	      0.42830598	     32.12076897	     -7.82515926	     -7.17943236	     69.38636527	     69.38636527	      6.03989532	    -16.89199244	      3.93212529	     18.05475414	     -4.86704326	     -8.34696149	     20.83113583	     20.83113583	     10.35807543	     -7.24418039	     -2.35955862	    -10.44657466	      3.19354050	      2.82795547	      9.91935873	    -15.91211647	      0.63110992	     88.35769922	     44.87594527	      0.00000000	      0.00000000	     10.93874461	    -14.28082204	      6.65326811	     37.94121731	     45.21704707	      0.00000000	      0.00000000
     16.29385714	     -4.73037866	     -3.75601183	     -1.35687206	      0.98949339	      0.93309773	      0.42845828	     33.16995056	     -7.68781198	     -6.84973276	     68.11632354	     68.11632354	      5.52079476	    -16.38768071	      2.71591274	     17.10409730	     -4.97364041	     -8.76551334	     20.56461294	     20.56461294	     10.76684719	     -6.80506908	     -2.79346866	    -10.57281356	      3.24993620	      2.59894203	      8.44906888	    -15.16645673	     -0.47750817	     82.99586764	     45.08802305	      0.00000000	      0.00000000	     12.87351645	    -15.02656565	      6.98488149	     38.88244332	     45.25756808	      0.00000000	      0.00000000
     16.30578571	     -4.55296275	     -3.76112962	     -1.60439085	      0.98890466	      0.93367735	      0.42861018	     34.07632628	     -7.57813750	     -6.56306898	     66.62708351	     66.62708351	      5.05626200	    -15.79136056	      1.85174987	     16.10878908	     -5.00644627	     -9.10982415	     20.22424911	     20.22424911	     11.18227291	     -6.56723005	     -3.06941761	    -10.72052194	      3.27607584	      2.52555147	      6.89898317	    -14.94729089	     -1.00124385	     78.24218422	     45.25742514	      0.00000000	      0.00000000	     14.77932926	    -15.70123884	      7.29321886	     40.15096455	     45.30808654	      0.00000000	      0.00000000
     16.31771429	     -4.36390635	     -3.74686384	     -1.89271434	      0.98831495	      0.93421577	      0.42886009	     34.86908799	     -7.42935518	     -6.22863672	     64.92695293	     64.92695293	      4.76568862	    -15.05199850	      1.65266844	     15.08435960	     -5.00871964	     -9.42503278	     19.84456815	     19.84456815	     11.57099900	     -6.34111622	     -3.24377154	    -10.98014193	      3.29736192	      2.90313697	      5.06828750	    -15.22531457	     -1.20062562	     74.32643331	     45.38475251	      0.00000000	      0.00000000	     16.85994626	    -16.11753466	      7.27733936	     41.47451300	     45.36707355	      0.00000000	      0.00000000
     16.32964286	     -4.23555713	     -3.75653810	     -2.12480428	      0.98780408	      0.93461615	      0.42920688	     35.52852491	     -7.27716081	     -6.06495466	     62.88914012	     62.88914012	      4.30235935	    -14.43925889	      1.21159178	     14.13951314	     -5.03660649	     -9.73290740	     19.46781112	     19.46781112	     11.90607725	     -6.07629132	     -3.57651903	    -11.05983546	      3.32859646	      2.54560455	      4.41663175	    -14.52720698	     -2.16468072	     68.11026956	     45.61433703	      0.00000000	      0.00000000	     18.45499697	    -16.99670506	      7.63882788	     42.69926167	     45.40898691	      0.00000000	      0.00000000
     16.34157143	     -4.04326041	     -3.72774113	     -2.40800778	      0.98740274	      0.93500369	      0.42957843	     35.97792741	     -7.11875478	     -5.88131652	     60.55525925	     60.55525925	      3.95429161	    -13.68263271	      1.31307343	     13.07323729	     -4.99074547	    -10.01304337	     19.01170487	     19.01170487	     12.26960238	     -5.94455315	     -3.70339047	    -11.24699034	      3.41178025	      3.01215478	      2.57347073	    -14.95907605	     -2.19902231	     64.82909694	     45.71376291	      0.00000000	      0.00000000	     20.40094142	    -17.26822498	      7.49142953	     44.15101324	     45.47249965	      0.00000000	      0.00000000
